<mxfile host="Electron" modified="2023-11-07T11:41:10.762Z" agent="Mozilla/5.0 (Windows NT 10.0; Win64; x64) AppleWebKit/537.36 (KHTML, like Gecko) draw.io/22.0.3 Chrome/114.0.5735.289 Electron/25.8.4 Safari/537.36" etag="bsrF3WgVpy0F-OdnMrEt" version="22.0.3" type="device">
  <diagram name="Page-1" id="cJsJQcaUTZM8Bm5E-qTY">
    <mxGraphModel dx="1102" dy="956" grid="1" gridSize="10" guides="1" tooltips="1" connect="1" arrows="1" fold="1" page="1" pageScale="1" pageWidth="827" pageHeight="1169" math="0" shadow="0">
      <root>
        <mxCell id="0" />
        <mxCell id="1" parent="0" />
        <mxCell id="7HBvsw9vZK02j5lrDOCJ-1" value="" style="verticalLabelPosition=bottom;verticalAlign=top;html=1;shape=mxgraph.basic.patternFillRect;fillStyle=diag;step=5;fillStrokeWidth=0.2;fillStrokeColor=#dddddd;direction=south;" vertex="1" parent="1">
          <mxGeometry x="70" y="495" width="190" height="415" as="geometry" />
        </mxCell>
        <mxCell id="7HBvsw9vZK02j5lrDOCJ-2" value="" style="verticalLabelPosition=bottom;verticalAlign=top;html=1;shape=mxgraph.basic.patternFillRect;fillStyle=diag;step=5;fillStrokeWidth=0.2;fillStrokeColor=#dddddd;direction=south;" vertex="1" parent="1">
          <mxGeometry x="290" y="495" width="190" height="415" as="geometry" />
        </mxCell>
        <mxCell id="7HBvsw9vZK02j5lrDOCJ-3" value="" style="verticalLabelPosition=bottom;verticalAlign=top;html=1;shape=mxgraph.basic.patternFillRect;fillStyle=diag;step=5;fillStrokeWidth=0.2;fillStrokeColor=#dddddd;direction=south;" vertex="1" parent="1">
          <mxGeometry x="510" y="495" width="190" height="415" as="geometry" />
        </mxCell>
      </root>
    </mxGraphModel>
  </diagram>
</mxfile>
